<svg width="27" height="33" viewBox="0 0 27 33" fill="none" xmlns="http://www.w3.org/2000/svg">
<path d="M13.5976 27.9347C13.9263 27.9073 14.2073 27.7775 14.4406 27.5453C14.6728 27.3119 14.789 27.0309 14.789 26.7023C14.789 26.3189 14.6657 26.011 14.4192 25.7788C14.1728 25.5455 13.8578 25.4425 13.4744 25.4699C12.3515 25.552 11.1602 25.2442 9.90038 24.5464C8.64058 23.8475 7.84636 22.5806 7.51772 20.7456C7.46295 20.4444 7.31889 20.1979 7.08555 20.0062C6.85331 19.8145 6.58656 19.7186 6.28531 19.7186C5.90189 19.7186 5.58694 19.8621 5.34046 20.1491C5.09397 20.4372 5.01181 20.773 5.09397 21.1564C5.55955 23.6486 6.65503 25.4288 8.38041 26.4969C10.1058 27.565 11.8449 28.0443 13.5976 27.9347ZM13.1457 32.8644C9.39373 32.8644 6.26504 31.5772 3.75968 29.0028C1.25323 26.4284 0 23.2241 0 19.39C0 16.6513 1.08891 13.6732 3.26672 10.4558C5.44343 7.23728 8.73644 3.75201 13.1457 0C17.555 3.75201 20.8486 7.23728 23.0264 10.4558C25.2031 13.6732 26.2915 16.6513 26.2915 19.39C26.2915 23.2241 25.0383 26.4284 22.5318 29.0028C20.0264 31.5772 16.8978 32.8644 13.1457 32.8644Z" fill="#ABABAB"/>
</svg>
