<svg width="89" height="80" viewBox="0 0 89 80" fill="none" xmlns="http://www.w3.org/2000/svg">
<g filter="url(#filter0_i_50_47)">
<path d="M28.155 48.2334C25.3617 51.8977 21.451 59.2262 28.155 59.2262C34.8591 59.2262 30.9484 51.8977 28.155 48.2334Z" fill="#00BCFF"/>
</g>
<g filter="url(#filter1_i_50_47)">
<path d="M43.8589 53.6177C41.0656 57.2819 37.1549 64.6105 43.8589 64.6105C50.563 64.6105 46.6523 57.2819 43.8589 53.6177Z" fill="#00BCFF"/>
</g>
<g filter="url(#filter2_i_50_47)">
<path d="M58.4413 48.2334C55.6479 51.8977 51.7372 59.2262 58.4413 59.2262C65.1453 59.2262 61.2346 51.8977 58.4413 48.2334Z" fill="#00BCFF"/>
</g>
<g opacity="0.7" filter="url(#filter3_f_50_47)">
<rect x="17.4987" y="54" width="53.8422" height="7.85199" rx="3.92599" fill="#00BCFF"/>
</g>
<g filter="url(#filter5_i_50_47)">
<path d="M71.2841 21.3144C71.4641 20.2928 71.5579 19.2419 71.5579 18.1692C71.5579 8.13464 63.3474 0 53.2193 0C45.6899 0 39.2203 4.49575 36.396 10.9256C34.108 8.96848 31.139 7.78681 27.8945 7.78681C20.6602 7.78681 14.7955 13.6618 14.7955 20.909C14.7955 21.3126 14.8137 21.7119 14.8493 22.1062C11.3697 23.7948 8.97375 27.338 8.97375 31.4357C8.97375 37.1697 13.6655 41.8181 19.453 41.8181H68.9381C74.7256 41.8181 79.4173 37.1697 79.4173 31.4357C79.4173 26.5007 75.9421 22.3699 71.2841 21.3144Z" fill="url(#paint0_linear_50_47)"/>
</g>
<defs>
<filter id="filter0_i_50_47" x="24.4534" y="48.2334" width="7.40332" height="11.6657" filterUnits="userSpaceOnUse" color-interpolation-filters="sRGB">
<feFlood flood-opacity="0" result="BackgroundImageFix"/>
<feBlend mode="normal" in="SourceGraphic" in2="BackgroundImageFix" result="shape"/>
<feColorMatrix in="SourceAlpha" type="matrix" values="0 0 0 0 0 0 0 0 0 0 0 0 0 0 0 0 0 0 127 0" result="hardAlpha"/>
<feOffset dy="2.01908"/>
<feGaussianBlur stdDeviation="0.336514"/>
<feComposite in2="hardAlpha" operator="arithmetic" k2="-1" k3="1"/>
<feColorMatrix type="matrix" values="0 0 0 0 1 0 0 0 0 1 0 0 0 0 1 0 0 0 0.21 0"/>
<feBlend mode="normal" in2="shape" result="effect1_innerShadow_50_47"/>
</filter>
<filter id="filter1_i_50_47" x="40.1573" y="53.6177" width="7.40332" height="11.6657" filterUnits="userSpaceOnUse" color-interpolation-filters="sRGB">
<feFlood flood-opacity="0" result="BackgroundImageFix"/>
<feBlend mode="normal" in="SourceGraphic" in2="BackgroundImageFix" result="shape"/>
<feColorMatrix in="SourceAlpha" type="matrix" values="0 0 0 0 0 0 0 0 0 0 0 0 0 0 0 0 0 0 127 0" result="hardAlpha"/>
<feOffset dy="2.01908"/>
<feGaussianBlur stdDeviation="0.336514"/>
<feComposite in2="hardAlpha" operator="arithmetic" k2="-1" k3="1"/>
<feColorMatrix type="matrix" values="0 0 0 0 1 0 0 0 0 1 0 0 0 0 1 0 0 0 0.21 0"/>
<feBlend mode="normal" in2="shape" result="effect1_innerShadow_50_47"/>
</filter>
<filter id="filter2_i_50_47" x="54.7396" y="48.2334" width="7.40332" height="11.6657" filterUnits="userSpaceOnUse" color-interpolation-filters="sRGB">
<feFlood flood-opacity="0" result="BackgroundImageFix"/>
<feBlend mode="normal" in="SourceGraphic" in2="BackgroundImageFix" result="shape"/>
<feColorMatrix in="SourceAlpha" type="matrix" values="0 0 0 0 0 0 0 0 0 0 0 0 0 0 0 0 0 0 127 0" result="hardAlpha"/>
<feOffset dy="2.01908"/>
<feGaussianBlur stdDeviation="0.336514"/>
<feComposite in2="hardAlpha" operator="arithmetic" k2="-1" k3="1"/>
<feColorMatrix type="matrix" values="0 0 0 0 1 0 0 0 0 1 0 0 0 0 1 0 0 0 0.21 0"/>
<feBlend mode="normal" in2="shape" result="effect1_innerShadow_50_47"/>
</filter>
<filter id="filter3_f_50_47" x="5.72205e-06" y="36.5013" width="88.8396" height="42.8495" filterUnits="userSpaceOnUse" color-interpolation-filters="sRGB">
<feFlood flood-opacity="0" result="BackgroundImageFix"/>
<feBlend mode="normal" in="SourceGraphic" in2="BackgroundImageFix" result="shape"/>
<feGaussianBlur stdDeviation="8.74936" result="effect1_foregroundBlur_50_47"/>
</filter>
<filter id="filter5_i_50_47" x="8.97375" y="0" width="70.4435" height="42.3212" filterUnits="userSpaceOnUse" color-interpolation-filters="sRGB">
<feFlood flood-opacity="0" result="BackgroundImageFix"/>
<feBlend mode="normal" in="SourceGraphic" in2="BackgroundImageFix" result="shape"/>
<feColorMatrix in="SourceAlpha" type="matrix" values="0 0 0 0 0 0 0 0 0 0 0 0 0 0 0 0 0 0 127 0" result="hardAlpha"/>
<feOffset dy="0.553625"/>
<feGaussianBlur stdDeviation="0.251648"/>
<feComposite in2="hardAlpha" operator="arithmetic" k2="-1" k3="1"/>
<feColorMatrix type="matrix" values="0 0 0 0 1 0 0 0 0 1 0 0 0 0 1 0 0 0 1 0"/>
<feBlend mode="normal" in2="shape" result="effect1_innerShadow_50_47"/>
</filter>
<linearGradient id="paint0_linear_50_47" x1="13.4543" y1="38.0843" x2="84.5201" y2="-15.0595" gradientUnits="userSpaceOnUse">
<stop stop-color="#DDDDDD"/>
<stop offset="1" stop-color="white" stop-opacity="0.58"/>
</linearGradient>
</defs>
</svg>
