<svg width="319" height="308" viewBox="0 0 319 308" fill="none" xmlns="http://www.w3.org/2000/svg">
<g filter="url(#filter0_i_44_374)">
<path d="M274.041 100.206C274.334 98.5449 274.487 96.8364 274.487 95.0926C274.487 78.7795 261.092 65.5552 244.569 65.5552C232.285 65.5552 221.731 72.8638 217.123 83.3168C213.39 80.1351 208.547 78.2141 203.254 78.2141C191.451 78.2141 181.883 87.765 181.883 99.5467C181.883 100.203 181.913 100.852 181.971 101.493C176.294 104.238 172.386 109.998 172.386 116.66C172.386 125.981 180.04 133.538 189.482 133.538H270.213C279.655 133.538 287.309 125.981 287.309 116.66C287.309 108.637 281.64 101.922 274.041 100.206Z" fill="url(#paint0_linear_44_374)"/>
</g>
<g filter="url(#filter1_f_44_374)">
<rect x="62.3178" y="62.3179" width="194.237" height="182.907" rx="76.0763" fill="#FFEF9A"/>
</g>
<g filter="url(#filter2_i_44_374)">
<path d="M245.225 153.771C245.225 201.598 206.816 240.369 159.436 240.369C112.057 240.369 73.6483 201.598 73.6483 153.771C73.6483 105.945 112.057 67.1738 159.436 67.1738C206.816 67.1738 245.225 105.945 245.225 153.771Z" fill="url(#paint1_linear_44_374)"/>
</g>
<g filter="url(#filter3_i_44_374)">
<path d="M146.168 219.986C146.461 218.325 146.614 216.616 146.614 214.872C146.614 198.559 133.22 185.335 116.696 185.335C104.413 185.335 93.8578 192.644 89.2502 203.097C85.5175 199.915 80.6738 197.994 75.3807 197.994C63.5783 197.994 54.0105 207.545 54.0105 219.326C54.0105 219.983 54.0402 220.632 54.0983 221.273C48.4215 224.018 44.5127 229.778 44.5127 236.439C44.5127 245.761 52.1669 253.318 61.6088 253.318H142.34C151.782 253.318 159.436 245.761 159.436 236.439C159.436 228.417 153.767 221.701 146.168 219.986Z" fill="url(#paint2_linear_44_374)"/>
</g>
<defs>
<filter id="filter0_i_44_374" x="172.386" y="65.5552" width="114.924" height="76.0761" filterUnits="userSpaceOnUse" color-interpolation-filters="sRGB">
<feFlood flood-opacity="0" result="BackgroundImageFix"/>
<feBlend mode="normal" in="SourceGraphic" in2="BackgroundImageFix" result="shape"/>
<feColorMatrix in="SourceAlpha" type="matrix" values="0 0 0 0 0 0 0 0 0 0 0 0 0 0 0 0 0 0 127 0" result="hardAlpha"/>
<feOffset dy="8.90254"/>
<feGaussianBlur stdDeviation="4.04661"/>
<feComposite in2="hardAlpha" operator="arithmetic" k2="-1" k3="1"/>
<feColorMatrix type="matrix" values="0 0 0 0 1 0 0 0 0 1 0 0 0 0 1 0 0 0 1 0"/>
<feBlend mode="normal" in2="shape" result="effect1_innerShadow_44_374"/>
</filter>
<filter id="filter1_f_44_374" x="-3.8147e-06" y="7.24792e-05" width="318.873" height="307.542" filterUnits="userSpaceOnUse" color-interpolation-filters="sRGB">
<feFlood flood-opacity="0" result="BackgroundImageFix"/>
<feBlend mode="normal" in="SourceGraphic" in2="BackgroundImageFix" result="shape"/>
<feGaussianBlur stdDeviation="31.1589" result="effect1_foregroundBlur_44_374"/>
</filter>
<filter id="filter2_i_44_374" x="73.6483" y="67.1738" width="171.576" height="177.241" filterUnits="userSpaceOnUse" color-interpolation-filters="sRGB">
<feFlood flood-opacity="0" result="BackgroundImageFix"/>
<feBlend mode="normal" in="SourceGraphic" in2="BackgroundImageFix" result="shape"/>
<feColorMatrix in="SourceAlpha" type="matrix" values="0 0 0 0 0 0 0 0 0 0 0 0 0 0 0 0 0 0 127 0" result="hardAlpha"/>
<feOffset dy="4.04661"/>
<feGaussianBlur stdDeviation="7.2839"/>
<feComposite in2="hardAlpha" operator="arithmetic" k2="-1" k3="1"/>
<feColorMatrix type="matrix" values="0 0 0 0 1 0 0 0 0 1 0 0 0 0 1 0 0 0 0.81 0"/>
<feBlend mode="normal" in2="shape" result="effect1_innerShadow_44_374"/>
</filter>
<filter id="filter3_i_44_374" x="44.5127" y="185.335" width="114.924" height="76.0761" filterUnits="userSpaceOnUse" color-interpolation-filters="sRGB">
<feFlood flood-opacity="0" result="BackgroundImageFix"/>
<feBlend mode="normal" in="SourceGraphic" in2="BackgroundImageFix" result="shape"/>
<feColorMatrix in="SourceAlpha" type="matrix" values="0 0 0 0 0 0 0 0 0 0 0 0 0 0 0 0 0 0 127 0" result="hardAlpha"/>
<feOffset dy="8.90254"/>
<feGaussianBlur stdDeviation="4.04661"/>
<feComposite in2="hardAlpha" operator="arithmetic" k2="-1" k3="1"/>
<feColorMatrix type="matrix" values="0 0 0 0 1 0 0 0 0 1 0 0 0 0 1 0 0 0 1 0"/>
<feBlend mode="normal" in2="shape" result="effect1_innerShadow_44_374"/>
</filter>
<linearGradient id="paint0_linear_44_374" x1="179.695" y1="127.468" x2="295.341" y2="40.6819" gradientUnits="userSpaceOnUse">
<stop stop-color="white"/>
<stop offset="1" stop-color="white" stop-opacity="0.58"/>
</linearGradient>
<linearGradient id="paint1_linear_44_374" x1="146.405" y1="200.907" x2="217.996" y2="76.5217" gradientUnits="userSpaceOnUse">
<stop stop-color="#FF9900"/>
<stop offset="1" stop-color="#FFEE94"/>
</linearGradient>
<linearGradient id="paint2_linear_44_374" x1="51.8224" y1="247.248" x2="167.468" y2="160.462" gradientUnits="userSpaceOnUse">
<stop stop-color="white"/>
<stop offset="1" stop-color="white" stop-opacity="0.58"/>
</linearGradient>
</defs>
</svg>
