<svg width="88" height="85" viewBox="0 0 88 85" fill="none" xmlns="http://www.w3.org/2000/svg">
<g filter="url(#filter0_f_44_379)">
<rect x="17.0893" y="17.0894" width="53.2653" height="50.1582" rx="20.8623" fill="#FFEF9A"/>
</g>
<g filter="url(#filter1_i_44_379)">
<path d="M66.8036 46.1632C66.8036 58.9108 56.4696 69.2448 43.722 69.2448C30.9743 69.2448 20.6403 58.9108 20.6403 46.1632C20.6403 33.4155 30.9743 23.0815 43.722 23.0815C56.4696 23.0815 66.8036 33.4155 66.8036 46.1632Z" fill="url(#paint0_linear_44_379)"/>
</g>
<g filter="url(#filter3_i_44_379)">
<path d="M56.8887 58.0663C57.0491 57.1554 57.1328 56.2184 57.1328 55.262C57.1328 46.315 49.8122 39.062 40.7817 39.062C34.0684 39.062 28.3 43.0705 25.7818 48.8035C23.7418 47.0585 21.0946 46.0049 18.2017 46.0049C11.7514 46.0049 6.52244 51.2431 6.52244 57.7049C6.52244 58.0647 6.53865 58.4207 6.57039 58.7723C3.46791 60.2779 1.33163 63.4371 1.33163 67.0906C1.33163 72.2032 5.51484 76.3478 10.6751 76.3478H54.7969C59.9571 76.3478 64.1404 72.2032 64.1404 67.0906C64.1404 62.6905 61.0418 59.0074 56.8887 58.0663Z" fill="url(#paint1_linear_44_379)"/>
</g>
<defs>
<filter id="filter0_f_44_379" x="-3.8147e-06" y="5.72205e-05" width="87.4439" height="84.3368" filterUnits="userSpaceOnUse" color-interpolation-filters="sRGB">
<feFlood flood-opacity="0" result="BackgroundImageFix"/>
<feBlend mode="normal" in="SourceGraphic" in2="BackgroundImageFix" result="shape"/>
<feGaussianBlur stdDeviation="8.54465" result="effect1_foregroundBlur_44_379"/>
</filter>
<filter id="filter1_i_44_379" x="20.6403" y="23.0815" width="46.1633" height="47.2728" filterUnits="userSpaceOnUse" color-interpolation-filters="sRGB">
<feFlood flood-opacity="0" result="BackgroundImageFix"/>
<feBlend mode="normal" in="SourceGraphic" in2="BackgroundImageFix" result="shape"/>
<feColorMatrix in="SourceAlpha" type="matrix" values="0 0 0 0 0 0 0 0 0 0 0 0 0 0 0 0 0 0 127 0" result="hardAlpha"/>
<feOffset dy="1.10969"/>
<feGaussianBlur stdDeviation="1.99745"/>
<feComposite in2="hardAlpha" operator="arithmetic" k2="-1" k3="1"/>
<feColorMatrix type="matrix" values="0 0 0 0 1 0 0 0 0 1 0 0 0 0 1 0 0 0 0.81 0"/>
<feBlend mode="normal" in2="shape" result="effect1_innerShadow_44_379"/>
</filter>
<filter id="filter3_i_44_379" x="1.33163" y="39.062" width="62.8087" height="39.505" filterUnits="userSpaceOnUse" color-interpolation-filters="sRGB">
<feFlood flood-opacity="0" result="BackgroundImageFix"/>
<feBlend mode="normal" in="SourceGraphic" in2="BackgroundImageFix" result="shape"/>
<feColorMatrix in="SourceAlpha" type="matrix" values="0 0 0 0 0 0 0 0 0 0 0 0 0 0 0 0 0 0 127 0" result="hardAlpha"/>
<feOffset dy="2.44133"/>
<feGaussianBlur stdDeviation="1.10969"/>
<feComposite in2="hardAlpha" operator="arithmetic" k2="-1" k3="1"/>
<feColorMatrix type="matrix" values="0 0 0 0 1 0 0 0 0 1 0 0 0 0 1 0 0 0 1 0"/>
<feBlend mode="normal" in2="shape" result="effect1_innerShadow_44_379"/>
</filter>
<linearGradient id="paint0_linear_44_379" x1="40.2159" y1="58.7266" x2="59.2071" y2="25.4189" gradientUnits="userSpaceOnUse">
<stop stop-color="#FF9900"/>
<stop offset="1" stop-color="#FFEE94"/>
</linearGradient>
<linearGradient id="paint1_linear_44_379" x1="5.32654" y1="73.0187" x2="68.6901" y2="25.6347" gradientUnits="userSpaceOnUse">
<stop stop-color="white"/>
<stop offset="1" stop-color="white" stop-opacity="0.58"/>
</linearGradient>
</defs>
</svg>
